<svg width="28" height="39" viewBox="0 0 28 39" fill="none" xmlns="http://www.w3.org/2000/svg">
<path d="M12.5612 37.4458C1.96656 22.0867 0 20.5104 0 14.8657C0 7.13371 6.26799 0.865723 14 0.865723C21.732 0.865723 28 7.13371 28 14.8657C28 20.5104 26.0334 22.0867 15.4388 37.4458C14.7435 38.4502 13.2564 38.4501 12.5612 37.4458ZM14 20.6991C17.2217 20.6991 19.8333 18.0874 19.8333 14.8657C19.8333 11.644 17.2217 9.03239 14 9.03239C10.7783 9.03239 8.16667 11.644 8.16667 14.8657C8.16667 18.0874 10.7783 20.6991 14 20.6991Z" fill="#BA0100"/>
</svg>
