<svg width="18" height="29" viewBox="0 0 18 29" fill="none" xmlns="http://www.w3.org/2000/svg">
<path d="M15.3 0.865723H2.7C1.20938 0.865723 0 2.0415 0 3.49072V26.2407C0 27.6899 1.20938 28.8657 2.7 28.8657H15.3C16.7906 28.8657 18 27.6899 18 26.2407V3.49072C18 2.0415 16.7906 0.865723 15.3 0.865723ZM9 27.1157C8.00437 27.1157 7.2 26.3337 7.2 25.3657C7.2 24.3978 8.00437 23.6157 9 23.6157C9.99562 23.6157 10.8 24.3978 10.8 25.3657C10.8 26.3337 9.99562 27.1157 9 27.1157ZM15.3 21.2095C15.3 21.5704 14.9962 21.8657 14.625 21.8657H3.375C3.00375 21.8657 2.7 21.5704 2.7 21.2095V4.14697C2.7 3.78604 3.00375 3.49072 3.375 3.49072H14.625C14.9962 3.49072 15.3 3.78604 15.3 4.14697V21.2095Z" fill="#BA0100"/>
</svg>
