<svg width="30" height="31" viewBox="0 0 30 31" fill="none" xmlns="http://www.w3.org/2000/svg">
<path d="M15 0.865723C6.71371 0.865723 0 7.57943 0 15.8657C0 24.152 6.71371 30.8657 15 30.8657C23.2863 30.8657 30 24.152 30 15.8657C30 7.57943 23.2863 0.865723 15 0.865723ZM15 27.9625C8.31653 27.9625 2.90323 22.5492 2.90323 15.8657C2.90323 9.18225 8.31653 3.76895 15 3.76895C21.6835 3.76895 27.0968 9.18225 27.0968 15.8657C27.0968 22.5492 21.6835 27.9625 15 27.9625ZM18.7379 21.648L13.6028 17.9161C13.4153 17.777 13.3065 17.5593 13.3065 17.3294V7.39798C13.3065 6.99879 13.6331 6.67217 14.0323 6.67217H15.9677C16.3669 6.67217 16.6935 6.99879 16.6935 7.39798V15.9685L20.7339 18.9081C21.0605 19.1439 21.127 19.5976 20.8911 19.9242L19.754 21.4907C19.5181 21.8113 19.0645 21.8839 18.7379 21.648Z" fill="#BA0100"/>
</svg>
