<svg width="32" height="32" viewBox="0 0 32 32" fill="none" xmlns="http://www.w3.org/2000/svg">
<path d="M30.7081 1.53169L24.2355 0.0380149C23.5323 -0.1238 22.8103 0.243395 22.524 0.903102L19.5367 7.87359C19.2753 8.4835 19.4495 9.19922 19.9661 9.61621L23.7376 12.7031C21.4971 17.4767 17.5825 21.4474 12.7093 23.7314L9.62241 19.9599C9.1992 19.4433 8.4897 19.2691 7.87979 19.5305L0.909301 22.5178C0.243371 22.8103 -0.123825 23.5323 0.0379901 24.2356L1.53167 30.7081C1.68726 31.3803 2.28473 31.8657 2.988 31.8657C18.9268 31.8657 31.8657 18.9517 31.8657 2.98802C31.8657 2.29098 31.3865 1.68728 30.7081 1.53169Z" fill="#BA0100"/>
</svg>
